<svg id="Layer_1" data-name="Layer 1" xmlns="http://www.w3.org/2000/svg" viewBox="0 0 1024.66 1317.2"><defs><style>.cls-1{fill:#231f20;fill-rule:evenodd;}</style></defs><path class="cls-1" d="M309.31,1232.58V342.24H624.7C798.13,342.24,940,484.15,940,657.61S798.13,973,624.7,973H582.36v259.58ZM84.62,975V84.62H400c102.29,0,193.65,49.38,251.32,125.44a445.62,445.62,0,0,1,111,20.9C698.4,94.79,559.81,0,400,0H0V1059.58H176.37V975ZM357.68,715.38v82.29H442.3c182.73-19.35,329.58-162.89,354-344.09a267.29,267.29,0,0,0-81.09-47C711.77,577,571.22,715.38,400,715.38Zm-133,601.82H667V1055.35c200.44-21.26,357.67-191.86,357.67-397.74,0-220.15-179.84-400-400-400h-400Z"/></svg>